# xmcd
#
# Track frame offsets: 
#        187
#        16037
#        43380
#        67697
#        87105
#        108835
#        136855
#        148077
#        169027
#        192027
#
# Disc length: 2788 seconds
#
# Revision: 3
# Processed by: cddbd v1.5.2PL0 Copyright (c) Steve Scherf et al.
# Submitted via: ExactAudioCopyFreeDBPlugin 1.0
#
DISCID=780ae20a
DTITLE=Bill Evans Trio - I Will Say Goodbye
DYEAR=1977
DGENRE=Jazz
TTITLE0=I Will Say Goodbye
TTITLE1=Dolphin Dance
TTITLE2=Seascape
TTITLE3=Peau Douce
TTITLE4=I Will Say Goodbye (Take 2)
TTITLE5=The Opener
TTITLE6=Quiet Light
TTITLE7=A House Is Not A Home
TTITLE8=Nobody Else But Me
TTITLE9=Orson's Theme
EXTD=YEAR: 1977
EXTT0=
EXTT1=
EXTT2=
EXTT3=
EXTT4=
EXTT5=
EXTT6=
EXTT7=
EXTT8=
EXTT9=
PLAYORDER=
